<?xml version="1.0" encoding="utf-8"?>
<!-- Generator: Adobe Illustrator 23.0.0, SVG Export Plug-In . SVG Version: 6.00 Build 0)  -->
<svg version="1.1" id="Capa_1" xmlns="http://www.w3.org/2000/svg" xmlns:xlink="http://www.w3.org/1999/xlink" x="0px" y="0px"
	 viewBox="0 0 400 400" style="enable-background:new 0 0 400 400;" xml:space="preserve">
<style type="text/css">
	.st0{fill:#6A5ACD;}
</style>
<g>
	<g>
		<path class="st0" d="M200,0C89.7,0,0,89.7,0,200s89.7,200,200,200c110.3,0,200-89.7,200-200S310.3,0,200,0z M200,373.8
			c-95.8,0-173.8-78-173.8-173.8c0-95.8,77.9-173.8,173.8-173.8c95.8,0,173.8,78,173.8,173.8C373.8,295.8,295.8,373.8,200,373.8z"/>
		<path class="st0" d="M265.5,134.5c-5.1-5.1-13.4-5.1-18.5,0L200,181.5l-46.9-46.9c-5.1-5.1-13.4-5.1-18.5,0
			c-5.1,5.1-5.1,13.4,0,18.5l46.9,46.9l-46.9,46.9c-5.1,5.1-5.1,13.4,0,18.5c2.6,2.6,5.9,3.8,9.3,3.8s6.7-1.3,9.3-3.8l46.9-46.9
			l46.9,46.9c2.6,2.6,5.9,3.8,9.3,3.8c3.4,0,6.7-1.3,9.3-3.8c5.1-5.1,5.1-13.4,0-18.5L218.5,200l46.9-46.9
			C270.6,148,270.6,139.7,265.5,134.5z"/>
	</g>
</g>
</svg>
